<svg id="Layer_1" data-name="Layer 1" xmlns="http://www.w3.org/2000/svg" xmlns:xlink="http://www.w3.org/1999/xlink" viewBox="0 0 202.4 80.1748"><defs><style>.cls-5{fill:#75b1f9;}.cls-6{fill:url(#linear-gradient);}.cls-7{fill:url(#linear-gradient-2);}.cls-8{fill:url(#linear-gradient-3);}.cls-9{fill:url(#linear-gradient-4);}.cls-10{fill:url(#linear-gradient-5);}.cls-11{fill:#3569a8;}</style><linearGradient id="linear-gradient" x1="91.67762" y1="185.10205" x2="91.67762" y2="231.52731" gradientUnits="userSpaceOnUse"><stop offset="0" stop-color="#4a91f2"/><stop offset="1" stop-color="#478be8"/></linearGradient><linearGradient id="linear-gradient-2" x1="121.87788" y1="185.10205" x2="121.87788" y2="231.52731" xlink:href="#linear-gradient"/><linearGradient id="linear-gradient-3" x1="162.13258" y1="185.10205" x2="162.13258" y2="231.52731" xlink:href="#linear-gradient"/><linearGradient id="linear-gradient-4" x1="209.14661" y1="185.10205" x2="209.14661" y2="231.52731" xlink:href="#linear-gradient"/><linearGradient id="linear-gradient-5" x1="253.73911" y1="185.10205" x2="253.73911" y2="231.52731" xlink:href="#linear-gradient"/></defs><path class="cls-5" d="M83.50924,267.6389H78.8l9.59388-23.101h3.35938l9.69684,23.101H96.70464l-2.45758-5.95709H86.07358Zm6.58149-17.04-2.4938,7.10008h4.95328Z" transform="translate(-78.8 -187.91406)"/><path class="cls-5" d="M142.1097,259.88105h-9.66252v-3.98283h15.06575v.48427a11.02549,11.02549,0,0,1-3.61868,8.24307,12.026,12.026,0,0,1-8.60627,3.4633,12.22,12.22,0,0,1-8.79694-3.49761,11.715,11.715,0,0,1,0-16.97042,12.03356,12.03356,0,0,1,8.69208-3.53288,12.39714,12.39714,0,0,1,6.8751,2.07816,10.11283,10.11283,0,0,1,4.27645,5.16015h-5.09056a6.94729,6.94729,0,0,0-6.16395-3.25548,7.59615,7.59615,0,0,0-5.62821,2.33746,7.8509,7.8509,0,0,0-2.30314,5.73212,7.617,7.617,0,0,0,2.33746,5.67968,7.966,7.966,0,0,0,5.80171,2.286,7.51073,7.51073,0,0,0,4.03431-1.12583A7.39169,7.39169,0,0,0,142.1097,259.88105Z" transform="translate(-78.8 -187.91406)"/><path class="cls-5" d="M183.18684,268.08886a11.68109,11.68109,0,0,1-8.5548-3.51477,11.93565,11.93565,0,0,1,0-16.95326A12.06151,12.06151,0,0,1,195.2402,256.106a11.515,11.515,0,0,1-3.53288,8.46805A11.644,11.644,0,0,1,183.18684,268.08886Zm0-20.01808a7.39869,7.39869,0,0,0-5.50619,2.35462,8.15734,8.15734,0,0,0,0,11.326,7.63458,7.63458,0,0,0,11.01237.01716,8.17863,8.17863,0,0,0,0-11.34316A7.39866,7.39866,0,0,0,183.18684,248.07078Z" transform="translate(-78.8 -187.91406)"/><path class="cls-5" d="M224.19343,267.6389h-4.29551v-23.101h7.06577q4.53573,0,6.65013,2.52812a7.07227,7.07227,0,0,1,1.69685,4.64155,7.7116,7.7116,0,0,1-1.45472,4.6406,7.61853,7.61853,0,0,1-4.572,2.77121l6.23449,8.51952h-5.16109l-6.164-8.83125Zm0-19.11817v7.06577h2.73594a4.45635,4.45635,0,0,0,3.01239-.9571,3.28622,3.28622,0,0,0,1.10771-2.62822,3.14145,3.14145,0,0,0-1.12487-2.54051,4.5241,4.5241,0,0,0-2.99523-.93994Z" transform="translate(-78.8 -187.91406)"/><path class="cls-5" d="M263.25914,267.6389H258.5499l9.59388-23.101h3.35938L281.2,267.6389h-4.74546l-2.45758-5.95709h-8.17348Zm6.58149-17.04-2.4938,7.10008h4.95328Z" transform="translate(-78.8 -187.91406)"/><path class="cls-6" d="M95.97782,235.06981H87.44649V196.79074h-8.598v-7.9752h25.65831v7.9752h-8.529Z" transform="translate(-78.8 -187.91406)"/><path class="cls-7" d="M134.326,235.06981H109.4298V188.81554H134.326v7.9752H118.02782v11.37154h15.60267v7.97521H118.02782v10.95592H134.326Z" transform="translate(-78.8 -187.91406)"/><path class="cls-8" d="M163.24246,227.9949q6.0984,0,11.57994-5.75544h9.91512a21.36493,21.36493,0,0,1-8.45988,9.95084,23.40171,23.40171,0,0,1-12.897,3.7798,24.02825,24.02825,0,0,1-.20959-48.056,23.56618,23.56618,0,0,1,17.33657,7.35,21.61136,21.61136,0,0,1,4.5086,6.79625h-9.70791a17.13434,17.13434,0,0,0-6.20677-4.81942,16.03276,16.03276,0,0,0-6.20677-1.35163,14.01433,14.01433,0,0,0-10.57485,4.78369,16.29478,16.29478,0,0,0,.10479,22.53825A14.48412,14.48412,0,0,0,163.24246,227.9949Z" transform="translate(-78.8 -187.91406)"/><path class="cls-9" d="M198.95165,235.06981h-8.598V188.81554h9.777l19.2086,33.63232V188.81554h8.60041v46.25427h-9.56977l-19.41819-33.56444Z" transform="translate(-78.8 -187.91406)"/><path class="cls-10" d="M275.89567,235.16932l-15.60718-2.74742a22.76338,22.76338,0,0,1-6.5222.93924,21.74382,21.74382,0,0,1-15.85277-6.51752,22.17458,22.17458,0,0,1-.00562-31.47588,22.37241,22.37241,0,0,1,36.05867,25.37736Zm-16.11335-9.65864,8.23571,1.44917-.99923-7.48394.54367-.97487a15.62549,15.62549,0,0,0-2.739-18.40521,15.67579,15.67579,0,0,0-26.74685,11.01969,14.79306,14.79306,0,0,0,4.57623,10.96533,15.04821,15.04821,0,0,0,11.11343,4.56124,15.93609,15.93609,0,0,0,5.19489-.84926Z" transform="translate(-78.8 -187.91406)"/><rect class="cls-11" x="8.64643" y="23.42729" width="8.53144" height="23.72839"/><polygon class="cls-11" points="39.228 28.223 54.83 28.223 54.83 23.427 30.63 23.427 30.63 47.156 55.526 47.156 55.526 39.179 39.228 39.179 39.228 28.223"/><path class="cls-11" d="M163.24241,227.99491a14.48427,14.48427,0,0,1-10.81779-4.78371,15.80173,15.80173,0,0,1-4.57756-11.30372c0-.19185.01906-.37655.025-.56613h-8.60353c-.00227.14394-.01955.282-.01955.42683a24.07779,24.07779,0,0,0,37.02865,20.42215,21.36545,21.36545,0,0,0,8.45983-9.95089h-9.915Q169.34208,227.9967,163.24241,227.99491Z" transform="translate(-78.8 -187.91406)"/><rect class="cls-11" x="111.55365" y="23.42729" width="8.59805" height="23.72839"/><polygon class="cls-11" points="140.539 23.427 140.539 34.534 134.196 23.427 125.842 23.427 139.57 47.156 149.14 47.156 149.14 23.427 140.539 23.427"/><path class="cls-11" d="M276.10861,211.34135h-6.71972a14.72954,14.72954,0,0,1-1.82638,7.15966l-.54373.97485.99929,7.484-8.23581-1.44923-.82114.28217a15.93464,15.93464,0,0,1-5.19481.84926,15.0485,15.0485,0,0,1-11.11343-4.56124,14.77132,14.77132,0,0,1-4.56624-10.73949H231.368a21.45815,21.45815,0,0,0,6.54551,15.50223,21.74367,21.74367,0,0,0,15.85281,6.5175,22.76372,22.76372,0,0,0,6.52215-.93922l15.60721,2.74737-1.92909-14.42418A21.72487,21.72487,0,0,0,276.10861,211.34135Z" transform="translate(-78.8 -187.91406)"/></svg>
